<mxfile host="app.diagrams.net" agent="Mozilla/5.0 (Macintosh; Intel Mac OS X 10_15_7) AppleWebKit/537.36 (KHTML, like Gecko) Chrome/130.0.0.0 Safari/537.36" version="24.8.2">
  <diagram name="Page-1" id="cw3Oyj1yKuwxjFokrLpM">
    <mxGraphModel dx="1317" dy="965" grid="1" gridSize="10" guides="1" tooltips="1" connect="1" arrows="1" fold="1" page="1" pageScale="1" pageWidth="827" pageHeight="1169" math="0" shadow="0">
      <root>
        <mxCell id="0" />
        <mxCell id="1" parent="0" />
        <mxCell id="2Id6K7MQPigZAek3vA0n-1" value="User" style="swimlane;fontStyle=1;align=center;verticalAlign=top;childLayout=stackLayout;horizontal=1;startSize=26.857142857142858;horizontalStack=0;resizeParent=1;resizeParentMax=0;resizeLast=0;collapsible=0;marginBottom=0;flipH=0;flipV=0;" vertex="1" parent="1">
          <mxGeometry x="14" y="240" width="188" height="196.85714285714286" as="geometry" />
        </mxCell>
        <mxCell id="2Id6K7MQPigZAek3vA0n-2" value="+int id" style="text;strokeColor=none;fillColor=none;align=left;verticalAlign=top;spacingLeft=4;spacingRight=4;overflow=hidden;rotatable=0;points=[[0,0.5],[1,0.5]];portConstraint=eastwest;" vertex="1" parent="2Id6K7MQPigZAek3vA0n-1">
          <mxGeometry y="26.857142857142858" width="188" height="27" as="geometry" />
        </mxCell>
        <mxCell id="2Id6K7MQPigZAek3vA0n-3" value="+string email" style="text;strokeColor=none;fillColor=none;align=left;verticalAlign=top;spacingLeft=4;spacingRight=4;overflow=hidden;rotatable=0;points=[[0,0.5],[1,0.5]];portConstraint=eastwest;" vertex="1" parent="2Id6K7MQPigZAek3vA0n-1">
          <mxGeometry y="53.85714285714286" width="188" height="27" as="geometry" />
        </mxCell>
        <mxCell id="2Id6K7MQPigZAek3vA0n-4" value="+string password" style="text;strokeColor=none;fillColor=none;align=left;verticalAlign=top;spacingLeft=4;spacingRight=4;overflow=hidden;rotatable=0;points=[[0,0.5],[1,0.5]];portConstraint=eastwest;" vertex="1" parent="2Id6K7MQPigZAek3vA0n-1">
          <mxGeometry y="80.85714285714286" width="188" height="27" as="geometry" />
        </mxCell>
        <mxCell id="2Id6K7MQPigZAek3vA0n-5" value="+string role" style="text;strokeColor=none;fillColor=none;align=left;verticalAlign=top;spacingLeft=4;spacingRight=4;overflow=hidden;rotatable=0;points=[[0,0.5],[1,0.5]];portConstraint=eastwest;" vertex="1" parent="2Id6K7MQPigZAek3vA0n-1">
          <mxGeometry y="107.85714285714286" width="188" height="27" as="geometry" />
        </mxCell>
        <mxCell id="2Id6K7MQPigZAek3vA0n-6" style="line;strokeWidth=1;fillColor=none;align=left;verticalAlign=middle;spacingTop=-1;spacingLeft=3;spacingRight=3;rotatable=0;labelPosition=right;points=[];portConstraint=eastwest;strokeColor=inherit;" vertex="1" parent="2Id6K7MQPigZAek3vA0n-1">
          <mxGeometry y="134.85714285714286" width="188" height="8" as="geometry" />
        </mxCell>
        <mxCell id="2Id6K7MQPigZAek3vA0n-7" value="+createPreReservation()" style="text;strokeColor=none;fillColor=none;align=left;verticalAlign=top;spacingLeft=4;spacingRight=4;overflow=hidden;rotatable=0;points=[[0,0.5],[1,0.5]];portConstraint=eastwest;" vertex="1" parent="2Id6K7MQPigZAek3vA0n-1">
          <mxGeometry y="142.85714285714286" width="188" height="27" as="geometry" />
        </mxCell>
        <mxCell id="2Id6K7MQPigZAek3vA0n-8" value="+viewRooms()" style="text;strokeColor=none;fillColor=none;align=left;verticalAlign=top;spacingLeft=4;spacingRight=4;overflow=hidden;rotatable=0;points=[[0,0.5],[1,0.5]];portConstraint=eastwest;" vertex="1" parent="2Id6K7MQPigZAek3vA0n-1">
          <mxGeometry y="169.85714285714286" width="188" height="27" as="geometry" />
        </mxCell>
        <mxCell id="2Id6K7MQPigZAek3vA0n-9" value="Administrator" style="swimlane;fontStyle=1;align=center;verticalAlign=top;childLayout=stackLayout;horizontal=1;startSize=25.818181818181817;horizontalStack=0;resizeParent=1;resizeParentMax=0;resizeLast=0;collapsible=0;marginBottom=0;flipH=0;flipV=0;" vertex="1" parent="1">
          <mxGeometry x="10" y="532" width="176" height="137.8181818181818" as="geometry" />
        </mxCell>
        <mxCell id="2Id6K7MQPigZAek3vA0n-10" style="line;strokeWidth=1;fillColor=none;align=left;verticalAlign=middle;spacingTop=-1;spacingLeft=3;spacingRight=3;rotatable=0;labelPosition=right;points=[];portConstraint=eastwest;strokeColor=inherit;" vertex="1" parent="2Id6K7MQPigZAek3vA0n-9">
          <mxGeometry y="25.818181818181817" width="176" height="8" as="geometry" />
        </mxCell>
        <mxCell id="2Id6K7MQPigZAek3vA0n-11" value="+validateReservation()" style="text;strokeColor=none;fillColor=none;align=left;verticalAlign=top;spacingLeft=4;spacingRight=4;overflow=hidden;rotatable=0;points=[[0,0.5],[1,0.5]];portConstraint=eastwest;" vertex="1" parent="2Id6K7MQPigZAek3vA0n-9">
          <mxGeometry y="33.81818181818181" width="176" height="26" as="geometry" />
        </mxCell>
        <mxCell id="2Id6K7MQPigZAek3vA0n-12" value="+manageRooms()" style="text;strokeColor=none;fillColor=none;align=left;verticalAlign=top;spacingLeft=4;spacingRight=4;overflow=hidden;rotatable=0;points=[[0,0.5],[1,0.5]];portConstraint=eastwest;" vertex="1" parent="2Id6K7MQPigZAek3vA0n-9">
          <mxGeometry y="59.81818181818181" width="176" height="26" as="geometry" />
        </mxCell>
        <mxCell id="2Id6K7MQPigZAek3vA0n-13" value="+manageUsers()" style="text;strokeColor=none;fillColor=none;align=left;verticalAlign=top;spacingLeft=4;spacingRight=4;overflow=hidden;rotatable=0;points=[[0,0.5],[1,0.5]];portConstraint=eastwest;" vertex="1" parent="2Id6K7MQPigZAek3vA0n-9">
          <mxGeometry y="85.81818181818181" width="176" height="26" as="geometry" />
        </mxCell>
        <mxCell id="2Id6K7MQPigZAek3vA0n-14" value="+manageEquipment()" style="text;strokeColor=none;fillColor=none;align=left;verticalAlign=top;spacingLeft=4;spacingRight=4;overflow=hidden;rotatable=0;points=[[0,0.5],[1,0.5]];portConstraint=eastwest;" vertex="1" parent="2Id6K7MQPigZAek3vA0n-9">
          <mxGeometry y="111.81818181818181" width="176" height="26" as="geometry" />
        </mxCell>
        <mxCell id="2Id6K7MQPigZAek3vA0n-15" value="Room" style="swimlane;fontStyle=1;align=center;verticalAlign=top;childLayout=stackLayout;horizontal=1;startSize=26.857142857142858;horizontalStack=0;resizeParent=1;resizeParentMax=0;resizeLast=0;collapsible=0;marginBottom=0;flipH=0;flipV=0;" vertex="1" parent="1">
          <mxGeometry x="440" y="240" width="183" height="196.85714285714286" as="geometry" />
        </mxCell>
        <mxCell id="2Id6K7MQPigZAek3vA0n-16" value="+int id" style="text;strokeColor=none;fillColor=none;align=left;verticalAlign=top;spacingLeft=4;spacingRight=4;overflow=hidden;rotatable=0;points=[[0,0.5],[1,0.5]];portConstraint=eastwest;" vertex="1" parent="2Id6K7MQPigZAek3vA0n-15">
          <mxGeometry y="26.857142857142858" width="183" height="27" as="geometry" />
        </mxCell>
        <mxCell id="2Id6K7MQPigZAek3vA0n-17" value="+string name" style="text;strokeColor=none;fillColor=none;align=left;verticalAlign=top;spacingLeft=4;spacingRight=4;overflow=hidden;rotatable=0;points=[[0,0.5],[1,0.5]];portConstraint=eastwest;" vertex="1" parent="2Id6K7MQPigZAek3vA0n-15">
          <mxGeometry y="53.85714285714286" width="183" height="27" as="geometry" />
        </mxCell>
        <mxCell id="2Id6K7MQPigZAek3vA0n-18" value="+int capacity" style="text;strokeColor=none;fillColor=none;align=left;verticalAlign=top;spacingLeft=4;spacingRight=4;overflow=hidden;rotatable=0;points=[[0,0.5],[1,0.5]];portConstraint=eastwest;" vertex="1" parent="2Id6K7MQPigZAek3vA0n-15">
          <mxGeometry y="80.85714285714286" width="183" height="27" as="geometry" />
        </mxCell>
        <mxCell id="2Id6K7MQPigZAek3vA0n-19" value="+List equipment" style="text;strokeColor=none;fillColor=none;align=left;verticalAlign=top;spacingLeft=4;spacingRight=4;overflow=hidden;rotatable=0;points=[[0,0.5],[1,0.5]];portConstraint=eastwest;" vertex="1" parent="2Id6K7MQPigZAek3vA0n-15">
          <mxGeometry y="107.85714285714286" width="183" height="27" as="geometry" />
        </mxCell>
        <mxCell id="2Id6K7MQPigZAek3vA0n-20" value="+List ergonomicCriteria" style="text;strokeColor=none;fillColor=none;align=left;verticalAlign=top;spacingLeft=4;spacingRight=4;overflow=hidden;rotatable=0;points=[[0,0.5],[1,0.5]];portConstraint=eastwest;" vertex="1" parent="2Id6K7MQPigZAek3vA0n-15">
          <mxGeometry y="134.85714285714286" width="183" height="27" as="geometry" />
        </mxCell>
        <mxCell id="2Id6K7MQPigZAek3vA0n-21" style="line;strokeWidth=1;fillColor=none;align=left;verticalAlign=middle;spacingTop=-1;spacingLeft=3;spacingRight=3;rotatable=0;labelPosition=right;points=[];portConstraint=eastwest;strokeColor=inherit;" vertex="1" parent="2Id6K7MQPigZAek3vA0n-15">
          <mxGeometry y="161.85714285714286" width="183" height="8" as="geometry" />
        </mxCell>
        <mxCell id="2Id6K7MQPigZAek3vA0n-22" value="+checkAvailability()" style="text;strokeColor=none;fillColor=none;align=left;verticalAlign=top;spacingLeft=4;spacingRight=4;overflow=hidden;rotatable=0;points=[[0,0.5],[1,0.5]];portConstraint=eastwest;" vertex="1" parent="2Id6K7MQPigZAek3vA0n-15">
          <mxGeometry y="169.85714285714286" width="183" height="27" as="geometry" />
        </mxCell>
        <mxCell id="2Id6K7MQPigZAek3vA0n-23" value="Reservation" style="swimlane;fontStyle=1;align=center;verticalAlign=top;childLayout=stackLayout;horizontal=1;startSize=26;horizontalStack=0;resizeParent=1;resizeParentMax=0;resizeLast=0;collapsible=0;marginBottom=0;flipH=0;flipV=0;" vertex="1" parent="1">
          <mxGeometry x="236" y="486" width="170" height="242" as="geometry" />
        </mxCell>
        <mxCell id="2Id6K7MQPigZAek3vA0n-24" value="+int id" style="text;strokeColor=none;fillColor=none;align=left;verticalAlign=top;spacingLeft=4;spacingRight=4;overflow=hidden;rotatable=0;points=[[0,0.5],[1,0.5]];portConstraint=eastwest;" vertex="1" parent="2Id6K7MQPigZAek3vA0n-23">
          <mxGeometry y="26" width="170" height="26" as="geometry" />
        </mxCell>
        <mxCell id="2Id6K7MQPigZAek3vA0n-25" value="+DateTime startTime" style="text;strokeColor=none;fillColor=none;align=left;verticalAlign=top;spacingLeft=4;spacingRight=4;overflow=hidden;rotatable=0;points=[[0,0.5],[1,0.5]];portConstraint=eastwest;" vertex="1" parent="2Id6K7MQPigZAek3vA0n-23">
          <mxGeometry y="52" width="170" height="26" as="geometry" />
        </mxCell>
        <mxCell id="2Id6K7MQPigZAek3vA0n-26" value="+DateTime endTime" style="text;strokeColor=none;fillColor=none;align=left;verticalAlign=top;spacingLeft=4;spacingRight=4;overflow=hidden;rotatable=0;points=[[0,0.5],[1,0.5]];portConstraint=eastwest;" vertex="1" parent="2Id6K7MQPigZAek3vA0n-23">
          <mxGeometry y="78" width="170" height="26" as="geometry" />
        </mxCell>
        <mxCell id="2Id6K7MQPigZAek3vA0n-27" value="+boolean isConfirmed" style="text;strokeColor=none;fillColor=none;align=left;verticalAlign=top;spacingLeft=4;spacingRight=4;overflow=hidden;rotatable=0;points=[[0,0.5],[1,0.5]];portConstraint=eastwest;" vertex="1" parent="2Id6K7MQPigZAek3vA0n-23">
          <mxGeometry y="104" width="170" height="26" as="geometry" />
        </mxCell>
        <mxCell id="2Id6K7MQPigZAek3vA0n-28" value="+User user" style="text;strokeColor=none;fillColor=none;align=left;verticalAlign=top;spacingLeft=4;spacingRight=4;overflow=hidden;rotatable=0;points=[[0,0.5],[1,0.5]];portConstraint=eastwest;" vertex="1" parent="2Id6K7MQPigZAek3vA0n-23">
          <mxGeometry y="130" width="170" height="26" as="geometry" />
        </mxCell>
        <mxCell id="2Id6K7MQPigZAek3vA0n-29" value="+Room room" style="text;strokeColor=none;fillColor=none;align=left;verticalAlign=top;spacingLeft=4;spacingRight=4;overflow=hidden;rotatable=0;points=[[0,0.5],[1,0.5]];portConstraint=eastwest;" vertex="1" parent="2Id6K7MQPigZAek3vA0n-23">
          <mxGeometry y="156" width="170" height="26" as="geometry" />
        </mxCell>
        <mxCell id="2Id6K7MQPigZAek3vA0n-30" style="line;strokeWidth=1;fillColor=none;align=left;verticalAlign=middle;spacingTop=-1;spacingLeft=3;spacingRight=3;rotatable=0;labelPosition=right;points=[];portConstraint=eastwest;strokeColor=inherit;" vertex="1" parent="2Id6K7MQPigZAek3vA0n-23">
          <mxGeometry y="182" width="170" height="8" as="geometry" />
        </mxCell>
        <mxCell id="2Id6K7MQPigZAek3vA0n-31" value="+modifyReservation()" style="text;strokeColor=none;fillColor=none;align=left;verticalAlign=top;spacingLeft=4;spacingRight=4;overflow=hidden;rotatable=0;points=[[0,0.5],[1,0.5]];portConstraint=eastwest;" vertex="1" parent="2Id6K7MQPigZAek3vA0n-23">
          <mxGeometry y="190" width="170" height="26" as="geometry" />
        </mxCell>
        <mxCell id="2Id6K7MQPigZAek3vA0n-32" value="+cancelReservation()" style="text;strokeColor=none;fillColor=none;align=left;verticalAlign=top;spacingLeft=4;spacingRight=4;overflow=hidden;rotatable=0;points=[[0,0.5],[1,0.5]];portConstraint=eastwest;" vertex="1" parent="2Id6K7MQPigZAek3vA0n-23">
          <mxGeometry y="216" width="170" height="26" as="geometry" />
        </mxCell>
        <mxCell id="2Id6K7MQPigZAek3vA0n-33" value="Equipment" style="swimlane;fontStyle=1;align=center;verticalAlign=top;childLayout=stackLayout;horizontal=1;startSize=25.818181818181817;horizontalStack=0;resizeParent=1;resizeParentMax=0;resizeLast=0;collapsible=0;marginBottom=0;flipH=0;flipV=0;" vertex="1" parent="1">
          <mxGeometry x="457" y="532" width="149" height="142.8181818181818" as="geometry" />
        </mxCell>
        <mxCell id="2Id6K7MQPigZAek3vA0n-34" value="+int id" style="text;strokeColor=none;fillColor=none;align=left;verticalAlign=top;spacingLeft=4;spacingRight=4;overflow=hidden;rotatable=0;points=[[0,0.5],[1,0.5]];portConstraint=eastwest;" vertex="1" parent="2Id6K7MQPigZAek3vA0n-33">
          <mxGeometry y="25.818181818181817" width="149" height="26" as="geometry" />
        </mxCell>
        <mxCell id="2Id6K7MQPigZAek3vA0n-35" value="+string name" style="text;strokeColor=none;fillColor=none;align=left;verticalAlign=top;spacingLeft=4;spacingRight=4;overflow=hidden;rotatable=0;points=[[0,0.5],[1,0.5]];portConstraint=eastwest;" vertex="1" parent="2Id6K7MQPigZAek3vA0n-33">
          <mxGeometry y="51.81818181818181" width="149" height="26" as="geometry" />
        </mxCell>
        <mxCell id="2Id6K7MQPigZAek3vA0n-36" value="+string type" style="text;strokeColor=none;fillColor=none;align=left;verticalAlign=top;spacingLeft=4;spacingRight=4;overflow=hidden;rotatable=0;points=[[0,0.5],[1,0.5]];portConstraint=eastwest;" vertex="1" parent="2Id6K7MQPigZAek3vA0n-33">
          <mxGeometry y="77.81818181818181" width="149" height="26" as="geometry" />
        </mxCell>
        <mxCell id="2Id6K7MQPigZAek3vA0n-37" value="+string description" style="text;strokeColor=none;fillColor=none;align=left;verticalAlign=top;spacingLeft=4;spacingRight=4;overflow=hidden;rotatable=0;points=[[0,0.5],[1,0.5]];portConstraint=eastwest;" vertex="1" parent="2Id6K7MQPigZAek3vA0n-33">
          <mxGeometry y="103.81818181818181" width="149" height="26" as="geometry" />
        </mxCell>
        <mxCell id="2Id6K7MQPigZAek3vA0n-38" style="line;strokeWidth=1;fillColor=none;align=left;verticalAlign=middle;spacingTop=-1;spacingLeft=3;spacingRight=3;rotatable=0;labelPosition=right;points=[];portConstraint=eastwest;strokeColor=inherit;" vertex="1" parent="2Id6K7MQPigZAek3vA0n-33">
          <mxGeometry y="129.8181818181818" width="149" height="13" as="geometry" />
        </mxCell>
        <mxCell id="2Id6K7MQPigZAek3vA0n-39" value="ErgonomicCriteria" style="swimlane;fontStyle=1;align=center;verticalAlign=top;childLayout=stackLayout;horizontal=1;startSize=26.444444444444443;horizontalStack=0;resizeParent=1;resizeParentMax=0;resizeLast=0;collapsible=0;marginBottom=0;flipH=0;flipV=0;" vertex="1" parent="1">
          <mxGeometry x="655" y="544" width="150" height="117.44444444444444" as="geometry" />
        </mxCell>
        <mxCell id="2Id6K7MQPigZAek3vA0n-40" value="+int id" style="text;strokeColor=none;fillColor=none;align=left;verticalAlign=top;spacingLeft=4;spacingRight=4;overflow=hidden;rotatable=0;points=[[0,0.5],[1,0.5]];portConstraint=eastwest;" vertex="1" parent="2Id6K7MQPigZAek3vA0n-39">
          <mxGeometry y="26.444444444444443" width="150" height="26" as="geometry" />
        </mxCell>
        <mxCell id="2Id6K7MQPigZAek3vA0n-41" value="+string name" style="text;strokeColor=none;fillColor=none;align=left;verticalAlign=top;spacingLeft=4;spacingRight=4;overflow=hidden;rotatable=0;points=[[0,0.5],[1,0.5]];portConstraint=eastwest;" vertex="1" parent="2Id6K7MQPigZAek3vA0n-39">
          <mxGeometry y="52.44444444444444" width="150" height="26" as="geometry" />
        </mxCell>
        <mxCell id="2Id6K7MQPigZAek3vA0n-42" value="+string description" style="text;strokeColor=none;fillColor=none;align=left;verticalAlign=top;spacingLeft=4;spacingRight=4;overflow=hidden;rotatable=0;points=[[0,0.5],[1,0.5]];portConstraint=eastwest;" vertex="1" parent="2Id6K7MQPigZAek3vA0n-39">
          <mxGeometry y="78.44444444444444" width="150" height="26" as="geometry" />
        </mxCell>
        <mxCell id="2Id6K7MQPigZAek3vA0n-43" style="line;strokeWidth=1;fillColor=none;align=left;verticalAlign=middle;spacingTop=-1;spacingLeft=3;spacingRight=3;rotatable=0;labelPosition=right;points=[];portConstraint=eastwest;strokeColor=inherit;" vertex="1" parent="2Id6K7MQPigZAek3vA0n-39">
          <mxGeometry y="104.44444444444444" width="150" height="13" as="geometry" />
        </mxCell>
        <mxCell id="2Id6K7MQPigZAek3vA0n-44" value="" style="curved=1;startArrow=block;startSize=16;startFill=0;endArrow=none;exitX=0.46;exitY=1;entryX=0.5;entryY=0;rounded=0;" edge="1" parent="1" source="2Id6K7MQPigZAek3vA0n-1" target="2Id6K7MQPigZAek3vA0n-9">
          <mxGeometry relative="1" as="geometry">
            <Array as="points">
              <mxPoint x="98" y="461" />
            </Array>
          </mxGeometry>
        </mxCell>
        <mxCell id="2Id6K7MQPigZAek3vA0n-45" value="" style="curved=1;startArrow=none;endArrow=none;exitX=0.97;exitY=1;entryX=0.01;entryY=0;rounded=0;" edge="1" parent="1" source="2Id6K7MQPigZAek3vA0n-1" target="2Id6K7MQPigZAek3vA0n-23">
          <mxGeometry relative="1" as="geometry">
            <Array as="points">
              <mxPoint x="220.00000000000045" y="460.99999999999955" />
            </Array>
          </mxGeometry>
        </mxCell>
        <mxCell id="2Id6K7MQPigZAek3vA0n-46" value="1" style="edgeLabel;resizable=0;labelBackgroundColor=none;fontSize=12;align=left;verticalAlign=top;" vertex="1" parent="2Id6K7MQPigZAek3vA0n-45">
          <mxGeometry x="-1" relative="1" as="geometry" />
        </mxCell>
        <mxCell id="2Id6K7MQPigZAek3vA0n-47" value="*" style="edgeLabel;resizable=0;labelBackgroundColor=none;fontSize=12;align=right;verticalAlign=bottom;" vertex="1" parent="2Id6K7MQPigZAek3vA0n-45">
          <mxGeometry x="1" relative="1" as="geometry" />
        </mxCell>
        <mxCell id="2Id6K7MQPigZAek3vA0n-48" value="" style="curved=1;startArrow=none;endArrow=none;exitX=0;exitY=1;entryX=0.97;entryY=0;rounded=0;" edge="1" parent="1" source="2Id6K7MQPigZAek3vA0n-15" target="2Id6K7MQPigZAek3vA0n-23">
          <mxGeometry relative="1" as="geometry">
            <Array as="points">
              <mxPoint x="416.00000000000045" y="460.99999999999955" />
            </Array>
          </mxGeometry>
        </mxCell>
        <mxCell id="2Id6K7MQPigZAek3vA0n-49" value="1" style="edgeLabel;resizable=0;labelBackgroundColor=none;fontSize=12;align=right;verticalAlign=top;" vertex="1" parent="2Id6K7MQPigZAek3vA0n-48">
          <mxGeometry x="-1" relative="1" as="geometry" />
        </mxCell>
        <mxCell id="2Id6K7MQPigZAek3vA0n-50" value="*" style="edgeLabel;resizable=0;labelBackgroundColor=none;fontSize=12;align=left;verticalAlign=bottom;" vertex="1" parent="2Id6K7MQPigZAek3vA0n-48">
          <mxGeometry x="1" relative="1" as="geometry" />
        </mxCell>
        <mxCell id="2Id6K7MQPigZAek3vA0n-51" value="" style="curved=1;startArrow=none;endArrow=none;exitX=0.5;exitY=1;entryX=0.5;entryY=0;rounded=0;" edge="1" parent="1" source="2Id6K7MQPigZAek3vA0n-15" target="2Id6K7MQPigZAek3vA0n-33">
          <mxGeometry relative="1" as="geometry">
            <Array as="points" />
          </mxGeometry>
        </mxCell>
        <mxCell id="2Id6K7MQPigZAek3vA0n-52" value="*" style="edgeLabel;resizable=0;labelBackgroundColor=none;fontSize=12;align=right;verticalAlign=top;" vertex="1" parent="2Id6K7MQPigZAek3vA0n-51">
          <mxGeometry x="-1" relative="1" as="geometry" />
        </mxCell>
        <mxCell id="2Id6K7MQPigZAek3vA0n-53" value="*" style="edgeLabel;resizable=0;labelBackgroundColor=none;fontSize=12;align=left;verticalAlign=bottom;" vertex="1" parent="2Id6K7MQPigZAek3vA0n-51">
          <mxGeometry x="1" relative="1" as="geometry" />
        </mxCell>
        <mxCell id="2Id6K7MQPigZAek3vA0n-54" value="" style="curved=1;startArrow=none;endArrow=none;exitX=1;exitY=0.79;entryX=0.5;entryY=0;rounded=0;" edge="1" parent="1" source="2Id6K7MQPigZAek3vA0n-15" target="2Id6K7MQPigZAek3vA0n-39">
          <mxGeometry relative="1" as="geometry">
            <Array as="points">
              <mxPoint x="730" y="461" />
            </Array>
          </mxGeometry>
        </mxCell>
        <mxCell id="2Id6K7MQPigZAek3vA0n-55" value="*" style="edgeLabel;resizable=0;labelBackgroundColor=none;fontSize=12;align=left;verticalAlign=top;" vertex="1" parent="2Id6K7MQPigZAek3vA0n-54">
          <mxGeometry x="-1" relative="1" as="geometry" />
        </mxCell>
        <mxCell id="2Id6K7MQPigZAek3vA0n-56" value="*" style="edgeLabel;resizable=0;labelBackgroundColor=none;fontSize=12;align=right;verticalAlign=bottom;" vertex="1" parent="2Id6K7MQPigZAek3vA0n-54">
          <mxGeometry x="1" relative="1" as="geometry" />
        </mxCell>
      </root>
    </mxGraphModel>
  </diagram>
</mxfile>
